<svg xmlns="http://www.w3.org/2000/svg" viewBox="0 0 121.7 121.7" fill="currentColor"><path d="M60.8 121.7c-33.5 0-60.8-27.3-60.8-60.8C0 27.3 27.3 0 60.8 0s60.8 27.3 60.8 60.8C121.7 94.4 94.4 121.7 60.8 121.7zM60.8 6C30.6 6 6 30.6 6 60.8c0 30.2 24.6 54.8 54.8 54.8s54.8-24.6 54.8-54.8C115.7 30.6 91.1 6 60.8 6z"/><path d="M60.6 100.4c-10 0-18.2-7.3-18.2-16.2h6c0 5.6 5.5 10.2 12.2 10.2 6.7 0 12.2-4.6 12.2-10.2h6C78.8 93.2 70.7 100.4 60.6 100.4z"/><path d="M46.4 66.2h-6c0-5.4-3.7-9.9-8.2-9.9s-8.2 4.4-8.2 9.9h-6c0-8.7 6.4-15.9 14.2-15.9S46.4 57.5 46.4 66.2z"/><path d="M103.8 66.2h-6c0-5.4-3.7-9.9-8.2-9.9s-8.2 4.4-8.2 9.9h-6c0-8.7 6.4-15.9 14.2-15.9S103.8 57.5 103.8 66.2z"/></svg>